<svg xmlns="http://www.w3.org/2000/svg" version="1.1" xmlns:xlink="http://www.w3.org/1999/xlink" xmlns:svgjs="http://svgjs.dev/svgjs" width="2000" height="570" viewBox="0 0 2000 570"><g transform="matrix(1,0,0,1,56.362359324523595,9.775228957132185)"><svg viewBox="0 0 396 113" data-background-color="#ffffff" preserveAspectRatio="xMidYMid meet" height="570" width="2000" xmlns="http://www.w3.org/2000/svg" xmlns:xlink="http://www.w3.org/1999/xlink"><g id="tight-bounds" transform="matrix(1,0,0,1,0.26245632621714776,0.29295378589384313)"><svg viewBox="0 0 395.52 112.4140924282123" height="112.4140924282123" width="395.52"><g><svg viewBox="0 0 585.6555475636903 166.45412837510105" height="112.4140924282123" width="395.52"><g><rect width="6.891469704621634" height="166.45412837510105" x="165.20358125011148" y="0" fill="#ffffff" opacity="1" stroke-width="0" stroke="transparent" fill-opacity="1" class="rect-yte-0" data-fill-palette-color="primary" rx="1%" id="yte-0" data-palette-color="#000000"></rect></g><g transform="matrix(1,0,0,1,190.1355475636903,0.41406499595795765)"><svg viewBox="0 0 395.52000000000004 165.62599838318513" height="165.62599838318513" width="395.52000000000004"><g id="textblocktransform"><svg viewBox="0 0 395.52000000000004 165.62599838318513" height="165.62599838318513" width="395.52000000000004" id="textblock"><g><svg viewBox="0 0 395.52000000000004 165.62599838318513" height="165.62599838318513" width="395.52000000000004"><g transform="matrix(1,0,0,1,0,0)"><svg width="395.52000000000004" viewBox="4.6 -35 185.55000000000004 74.25" height="165.62599838318513" data-palette-color="#000000"><svg></svg><svg></svg><g class="wordmark-text-0" data-fill-palette-color="primary" id="text-0"><path d="M4.6 0v-35h6.85l12.1 23.75 12-23.75h6.85v35h-5.45l-0.05-26.75-11.5 23.1h-3.75l-11.6-23.1v26.75zM47.05 0l15.45-35h6.05l15.3 35h-6.3l-12.2-29.05-12.15 29.05zM54.75-8.1v-5h20.95v5z" fill="#ffffff" fill-rule="nonzero" stroke="none" stroke-width="1" stroke-linecap="butt" stroke-linejoin="miter" stroke-miterlimit="10" stroke-dasharray="" stroke-dashoffset="0" font-family="none" font-weight="none" font-size="none" text-anchor="none" style="mix-blend-mode: normal" data-fill-palette-color="primary" opacity="1"></path><path transform="translate(0,38.85)" d="M4.6-35h14.35c2.633 0 5.05 0.433 7.25 1.3 2.2 0.867 4.11 2.083 5.73 3.65 1.613 1.567 2.87 3.417 3.77 5.55 0.9 2.133 1.35 4.467 1.35 7v0c0 2.533-0.45 4.857-1.35 6.97-0.9 2.12-2.167 3.97-3.8 5.55-1.633 1.587-3.567 2.813-5.8 3.68-2.233 0.867-4.667 1.3-7.3 1.3v0h-14.2zM10.5-5.05h8.6c1.7 0 3.277-0.3 4.73-0.9 1.447-0.6 2.713-1.46 3.8-2.58 1.08-1.113 1.93-2.43 2.55-3.95 0.613-1.513 0.92-3.17 0.92-4.97v0c0-1.833-0.317-3.51-0.95-5.03-0.633-1.513-1.5-2.837-2.6-3.97-1.1-1.133-2.39-2-3.87-2.6-1.487-0.6-3.097-0.9-4.83-0.9v0h-8.35zM43.35 0v-35h25v5.05h-19.1v9.85h17.1v5h-17.1v10.05h19.7v5.05zM99.9-31.85l-2.45 4.95c-1.267-0.8-2.517-1.433-3.75-1.9-1.233-0.467-2.4-0.8-3.5-1-1.1-0.2-2.1-0.3-3-0.3v0c-1.733 0-3.117 0.333-4.15 1-1.033 0.667-1.55 1.633-1.55 2.9v0c0 1.133 0.343 2.057 1.03 2.77 0.68 0.72 1.58 1.303 2.7 1.75 1.113 0.453 2.347 0.88 3.7 1.28 1.347 0.4 2.687 0.843 4.02 1.33 1.333 0.48 2.567 1.103 3.7 1.87 1.133 0.767 2.033 1.74 2.7 2.92 0.667 1.187 1 2.68 1 4.48v0c0 2.067-0.567 3.86-1.7 5.38-1.133 1.513-2.69 2.687-4.67 3.52-1.987 0.833-4.263 1.25-6.83 1.25v0c-1.833 0-3.617-0.243-5.35-0.73-1.733-0.48-3.357-1.137-4.87-1.97-1.52-0.833-2.88-1.8-4.08-2.9v0l2.55-4.85c1.2 1.1 2.477 2.033 3.83 2.8 1.347 0.767 2.713 1.35 4.1 1.75 1.38 0.4 2.687 0.6 3.92 0.6v0c2.067 0 3.677-0.4 4.83-1.2 1.147-0.8 1.72-1.917 1.72-3.35v0c0-1.167-0.34-2.11-1.02-2.83-0.687-0.713-1.587-1.303-2.7-1.77-1.12-0.467-2.353-0.883-3.7-1.25-1.353-0.367-2.703-0.793-4.05-1.28-1.353-0.48-2.587-1.087-3.7-1.82-1.12-0.733-2.02-1.683-2.7-2.85-0.687-1.167-1.03-2.65-1.03-4.45v0c0-1.967 0.533-3.677 1.6-5.13 1.067-1.447 2.56-2.57 4.48-3.37 1.913-0.8 4.137-1.2 6.67-1.2v0c2.267 0 4.467 0.333 6.6 1 2.133 0.667 4.017 1.533 5.65 2.6zM107.25 0v-35h5.9v35zM151.65-30.4l-3.35 4.05c-1.333-1.267-2.89-2.26-4.67-2.98-1.787-0.713-3.597-1.07-5.43-1.07v0c-1.8 0-3.467 0.333-5 1-1.533 0.667-2.883 1.583-4.05 2.75-1.167 1.167-2.077 2.523-2.73 4.07-0.647 1.553-0.97 3.23-0.97 5.03v0c0 1.8 0.323 3.483 0.97 5.05 0.653 1.567 1.563 2.94 2.73 4.12 1.167 1.187 2.523 2.113 4.07 2.78 1.553 0.667 3.23 1 5.03 1v0c1.633 0 3.323-0.333 5.07-1 1.753-0.667 3.33-1.567 4.73-2.7v0l3.4 4.1c-1.167 0.9-2.507 1.7-4.02 2.4-1.52 0.7-3.097 1.24-4.73 1.62-1.633 0.387-3.25 0.58-4.85 0.58v0c-2.6 0-5.007-0.46-7.22-1.38-2.22-0.913-4.17-2.187-5.85-3.82-1.687-1.633-2.997-3.543-3.93-5.73-0.933-2.18-1.4-4.52-1.4-7.02v0c0-2.5 0.477-4.827 1.43-6.98 0.947-2.147 2.27-4.037 3.97-5.67 1.7-1.633 3.69-2.9 5.97-3.8 2.287-0.9 4.747-1.35 7.38-1.35v0c1.667 0 3.31 0.2 4.93 0.6 1.613 0.4 3.153 0.967 4.62 1.7 1.467 0.733 2.767 1.617 3.9 2.65zM146.3-4.2v-12.9h5.15v12.9zM159.8 0v-35h5.8l20.25 27.75-1.5 0.5v-28.25h5.8v35h-5.8l-20.2-27.7 1.55-0.5v28.2z" fill="#ffffff" fill-rule="nonzero" stroke="none" stroke-width="1" stroke-linecap="butt" stroke-linejoin="miter" stroke-miterlimit="10" stroke-dasharray="" stroke-dashoffset="0" font-family="none" font-weight="none" font-size="none" text-anchor="none" style="mix-blend-mode: normal" data-fill-palette-color="primary" opacity="1"></path></g></svg></g></svg></g></svg></g></svg></g><g transform="matrix(1,0,0,1,0,0.41406499595795765)"><svg viewBox="0 0 147.16308464115434 165.62599838318513" height="165.62599838318513" width="147.16308464115434"><g><svg xmlns="http://www.w3.org/2000/svg" data-name="Layer 1" viewBox="5.552926098090863 0 88.89707390190914 100.05" x="0" y="0" id="icon-0" width="147.16308464115434" height="165.62599838318513" class="icon-icon-0" data-fill-palette-color="accent"><g data-name="Go to Web" fill="#000000" data-fill-palette-color="accent"><path d="M30.06 100A9.24 9.24 0 0 1 33.55 95.92 24.7 24.7 0 0 1 40.72 92.59L41.3 92.41 39.71 91.84A51.5 51.5 0 0 1 6.54 53.43 49.5 49.5 0 0 1 5.66 40.34 50.84 50.84 0 0 1 18.55 9.34 49.4 49.4 0 0 1 28.5 0.75 13 13 0 0 1 30.06 0H31.23A3.83 3.83 0 0 1 33.49 1.44 3.4 3.4 0 0 1 32.7 6.23 50 50 0 0 0 26.28 11.32 44 44 0 0 0 13.71 33.16 44.31 44.31 0 0 0 21.71 70.49 44.1 44.1 0 0 0 39.71 84.42 43.1 43.1 0 0 0 51.55 87.57 44.6 44.6 0 0 0 64.24 87.28 43.7 43.7 0 0 0 80.34 81.2 3.6 3.6 0 0 1 84.57 81.35 3.43 3.43 0 0 1 84.23 86.93C82.53 87.93 80.77 88.93 78.99 89.82A45.6 45.6 0 0 1 70.57 93L70.3 93.1C71.04 93.41 71.74 93.67 72.41 93.98A19.2 19.2 0 0 1 76.59 96.45 9.3 9.3 0 0 1 79.47 100.05H30.06Z" fill="#ffffff" data-fill-palette-color="accent"></path><path d="M18.66 41.36C18.81 40.26 18.95 39.16 19.11 38.06A39.1 39.1 0 0 1 27.45 19C28.45 20 29.45 21 30.58 21.88 32.53 23.39 34.58 24.79 36.58 26.22 36.88 26.43 37.14 26.56 36.97 27.04A50.6 50.6 0 0 0 34 42.73H18.66z" fill="#ffffff" data-fill-palette-color="accent"></path><path d="M94.45 42.73H79.11C79 41.38 78.91 40.07 78.79 38.73A46 46 0 0 0 76.27 27.34 0.89 0.89 0 0 1 76.73 26.03 38.4 38.4 0 0 0 85 19.51C85.17 19.33 85.36 19.16 85.67 18.87 86.9 20.73 88.19 22.49 89.28 24.37A37.7 37.7 0 0 1 93.7 36.37C93.96 37.79 94.08 39.23 94.27 40.67 94.27 40.89 94.37 41.1 94.41 41.32V42.69Z" fill="#ffffff" data-fill-palette-color="accent"></path><path d="M18.66 45.18H34C34.11 46.53 34.2 47.84 34.32 49.18A46 46 0 0 0 36.84 60.57 0.88 0.88 0 0 1 36.38 61.87 38.4 38.4 0 0 0 28.12 68.37L27.4 69.08C26.17 67.21 24.88 65.45 23.79 63.57A37.6 37.6 0 0 1 19.37 51.57C19.11 50.15 18.99 48.71 18.8 47.27 18.8 47.05 18.7 46.84 18.66 46.62z" fill="#ffffff" data-fill-palette-color="accent"></path><path d="M94.45 46.55C94.3 47.65 94.16 48.75 94 49.85A39.13 39.13 0 0 1 85.65 68.94C84.6 67.94 83.65 66.94 82.52 66.06 80.57 64.55 78.52 63.15 76.52 61.72 76.22 61.51 75.96 61.38 76.13 60.9A50.4 50.4 0 0 0 79.04 45.18H94.45z" fill="#ffffff" data-fill-palette-color="accent"></path><path d="M55.18 56.29A39.1 39.1 0 0 0 39.18 60.29 46.7 46.7 0 0 1 36.36 45.2H55.18z" fill="#ffffff" data-fill-palette-color="accent"></path><path d="M57.95 45.2H76.67C76.98 48.44 75.35 57.28 73.87 60.27A39 39 0 0 0 57.94 56.27V45.2Z" fill="#ffffff" data-fill-palette-color="accent"></path><path d="M55.18 31.61V42.7H36.42C36.11 39.45 37.76 30.6 39.22 27.65A39 39 0 0 0 55.18 31.61" fill="#ffffff" data-fill-palette-color="accent"></path><path d="M73.89 27.63A45.3 45.3 0 0 1 76.7 42.7H57.92V31.62A39.1 39.1 0 0 0 73.89 27.63" fill="#ffffff" data-fill-palette-color="accent"></path><path d="M57.93 81.11V58.72C61.93 58.52 69.49 60.44 72.93 62.49 72.06 67.34 64 77.32 57.93 81.11" fill="#ffffff" data-fill-palette-color="accent"></path><path d="M55.15 29.23A36.2 36.2 0 0 1 40 25.41 41.73 41.73 0 0 1 55.15 6.78z" fill="#ffffff" data-fill-palette-color="accent"></path><path d="M57.94 6.78A41.7 41.7 0 0 1 73 25.35 34.86 34.86 0 0 1 57.91 29.22V6.78Z" fill="#ffffff" data-fill-palette-color="accent"></path><path d="M55.19 58.68V81.15A41.8 41.8 0 0 1 40 62.51 36 36 0 0 1 55.19 58.68" fill="#ffffff" data-fill-palette-color="accent"></path><path d="M60.05 82.66A45.26 45.26 0 0 0 75.05 63.66C77.05 64.5 81.72 68.17 84.05 70.77A37 37 0 0 1 60.05 82.66" fill="#ffffff" data-fill-palette-color="accent"></path><path d="M38 24.28A38 38 0 0 1 29 17.12 37 37 0 0 1 53 5.25 45.3 45.3 0 0 0 38 24.28" fill="#ffffff" data-fill-palette-color="accent"></path><path d="M84.06 17.11A37.8 37.8 0 0 1 75.06 24.27 45.3 45.3 0 0 0 60 5.25 37.1 37.1 0 0 1 84.06 17.11" fill="#ffffff" data-fill-palette-color="accent"></path><path d="M53 82.65A37 37 0 0 1 29 70.8 37.8 37.8 0 0 1 38 63.63 46.8 46.8 0 0 0 44.26 74.2 45.8 45.8 0 0 0 53 82.65" fill="#ffffff" data-fill-palette-color="accent"></path></g></svg></g></svg></g></svg></g><defs></defs></svg><rect width="395.52" height="112.4140924282123" fill="none" stroke="none" visibility="hidden"></rect></g></svg></g></svg>